# xmcd
#
# Track frame offsets:
#	150
#	15510
#	33725
#	51762
#	69607
#	89702
#	105925
#	119395
#	136815
#	155434
#	174582
#	192440
#
# Disc length: 2796 seconds
#
# Revision: 0
# Processed by: cddbd v1.4b42PL1 Copyright (c) Steve Scherf et al.
# Submitted via: EasyCDDAExtractor 4.5.0.2
#
DISCID=a00aea0c
DTITLE=Rick Tippe - Shiver 'n' Shake
DYEAR=1900
DGENRE=Country
TTITLE0=Trple treath
TTITLE1=When You say jump
TTITLE2=Party Down
TTITLE3=Hollywood heart
TTITLE4=Shiver 'n' Shake
TTITLE5=Texas is where it's at
TTITLE6=More where that came from
TTITLE7=L-O-V-E
TTITLE8=Captured
TTITLE9=You're killing me
TTITLE10=Saddle up
TTITLE11=Shiver 'n' Share (Radio edit)
EXTD=
EXTT0=
EXTT1=
EXTT2=
EXTT3=
EXTT4=
EXTT5=
EXTT6=
EXTT7=
EXTT8=
EXTT9=
EXTT10=
EXTT11=
PLAYORDER=
